<?xml version="1.0" encoding="iso-8859-1"?>
<!-- Generator: Adobe Illustrator 26.0.1, SVG Export Plug-In . SVG Version: 6.00 Build 0)  -->
<svg version="1.1" id="Layer_1" xmlns="http://www.w3.org/2000/svg" xmlns:xlink="http://www.w3.org/1999/xlink" x="0px" y="0px"
	 viewBox="0 0 500 500" style="enable-background:new 0 0 500 500;" xml:space="preserve">
<g id="watermark_1_">
	<g>
		<g id="watermark" style="opacity:0.61;">
			<g>
				<g>
					<g>
						<g>
							<polygon style="fill:#FFFFFF;" points="213.765,461.172 208.204,474.017 205.268,474.017 199.726,461.172 202.938,461.172 
								206.846,470.347 210.81,461.172 							"/>
						</g>
						<g>
							<path style="fill:#FFFFFF;" d="M223.507,469.741h-7.469c0.275,1.23,1.321,1.982,2.826,1.982c1.046,0,1.798-0.312,2.477-0.954
								l1.523,1.651c-0.917,1.046-2.294,1.597-4.074,1.597c-3.413,0-5.634-2.147-5.634-5.083c0-2.954,2.257-5.083,5.267-5.083
								c2.899,0,5.138,1.945,5.138,5.12C223.562,469.191,223.526,469.503,223.507,469.741 M216.002,468.071h4.863
								c-0.202-1.248-1.138-2.055-2.422-2.055C217.139,466.016,216.204,466.805,216.002,468.071"/>
						</g>
						<g>
							<path style="fill:#FFFFFF;" d="M224.735,468.934c0-2.973,2.294-5.083,5.505-5.083c2.074,0,3.707,0.899,4.423,2.514
								l-2.22,1.193c-0.532-0.936-1.321-1.358-2.221-1.358c-1.45,0-2.587,1.009-2.587,2.734c0,1.725,1.138,2.734,2.587,2.734
								c0.899,0,1.688-0.404,2.221-1.358l2.22,1.211c-0.716,1.578-2.349,2.495-4.423,2.495
								C227.029,474.017,224.735,471.907,224.735,468.934"/>
						</g>
						<g>
							<path style="fill:#FFFFFF;" d="M242.828,473.393c-0.587,0.422-1.45,0.624-2.331,0.624c-2.33,0-3.688-1.193-3.688-3.542
								v-4.055h-1.523v-2.202h1.523v-2.404h2.863v2.404h2.459v2.202h-2.459v4.019c0,0.844,0.458,1.303,1.229,1.303
								c0.422,0,0.844-0.128,1.156-0.367L242.828,473.393z"/>
						</g>
					</g>
					<g>
						<path style="fill:#FFFFFF;" d="M262.474,463.997v2.643c-0.238-0.018-0.422-0.037-0.642-0.037
							c-1.578,0-2.624,0.862-2.624,2.753v4.661h-2.863v-9.873h2.734v1.303C259.776,464.493,260.951,463.997,262.474,463.997"/>
					</g>
					<g>
						<path style="fill:#FFFFFF;" d="M263.299,472.53l1.009-2.239c1.083,0.789,2.697,1.339,4.239,1.339
							c1.762,0,2.477-0.587,2.477-1.376c0-2.404-7.469-0.752-7.469-5.524c0-2.184,1.762-4,5.413-4c1.615,0,3.267,0.385,4.459,1.138
							l-0.918,2.257c-1.193-0.679-2.422-1.009-3.56-1.009c-1.761,0-2.44,0.66-2.44,1.468c0,2.367,7.468,0.734,7.468,5.45
							c0,2.147-1.78,3.982-5.45,3.982C266.492,474.017,264.437,473.411,263.299,472.53"/>
					</g>
					<g>
						<path style="fill:#FFFFFF;" d="M285.428,469.741h-7.469c0.275,1.23,1.321,1.982,2.826,1.982c1.046,0,1.798-0.312,2.477-0.954
							l1.523,1.651c-0.918,1.046-2.294,1.597-4.074,1.597c-3.413,0-5.634-2.147-5.634-5.083c0-2.954,2.257-5.083,5.267-5.083
							c2.9,0,5.138,1.945,5.138,5.12C285.484,469.191,285.447,469.503,285.428,469.741 M277.923,468.071h4.863
							c-0.202-1.248-1.138-2.055-2.422-2.055C279.061,466.016,278.125,466.805,277.923,468.071"/>
					</g>
					<g>
						<path style="fill:#FFFFFF;" d="M297.007,469.741h-7.469c0.275,1.23,1.321,1.982,2.826,1.982c1.046,0,1.798-0.312,2.477-0.954
							l1.523,1.651c-0.918,1.046-2.294,1.597-4.074,1.597c-3.413,0-5.634-2.147-5.634-5.083c0-2.954,2.257-5.083,5.267-5.083
							c2.899,0,5.138,1.945,5.138,5.12C297.062,469.191,297.025,469.503,297.007,469.741 M289.501,468.071h4.863
							c-0.202-1.248-1.138-2.055-2.422-2.055C290.639,466.016,289.703,466.805,289.501,468.071"/>
					</g>
					<g>
						<polygon style="fill:#FFFFFF;" points="303.208,470.145 301.831,471.503 301.831,474.017 298.969,474.017 298.969,460.401 
							301.831,460.401 301.831,468.108 306.016,464.144 309.429,464.144 305.318,468.328 309.796,474.017 306.327,474.017 						"/>
					</g>
					<g>
						<path style="fill:#FFFFFF;" d="M256.601,475.359L256.601,475.359l-2.86-2.86c-0.435,0.508-0.953,0.943-1.534,1.284
							c-0.092,0.069-0.186,0.136-0.283,0.199l3.027,3.027c0.456,0.456,1.195,0.456,1.65,0
							C257.057,476.554,257.057,475.815,256.601,475.359"/>
					</g>
					<g>
						<path style="fill:#FFFFFF;" d="M249.984,463.244c0.221-0.173,0.495-0.281,0.797-0.281c0.042,0,0.083,0.002,0.124,0.006
							c-0.214-0.156-0.478-0.249-0.764-0.249c-0.395,0-0.744,0.18-0.981,0.458c-0.051,0-0.1,0.006-0.151,0.008
							c0.039-0.077,0.064-0.162,0.064-0.255c0-0.234-0.143-0.434-0.346-0.519c0.087,0.126,0.138,0.279,0.138,0.445
							c0,0.122-0.031,0.237-0.081,0.341c-2.811,0.201-5.03,2.539-5.03,5.4c0,2.993,2.426,5.42,5.42,5.42
							c2.993,0,5.42-2.426,5.42-5.42C254.595,465.879,252.593,463.635,249.984,463.244 M247.983,464.656
							c0.435,0,0.844,0.112,1.199,0.309c0.374-0.245,0.82-0.387,1.299-0.387c0.711,0,1.348,0.312,1.784,0.806
							c-0.435-0.379-1.004-0.61-1.627-0.61c-0.449,0-0.87,0.12-1.234,0.329c-0.079,0.046-0.156,0.096-0.229,0.15
							c-0.065-0.048-0.133-0.093-0.204-0.134c-0.369-0.219-0.8-0.344-1.26-0.344c-0.3,0-0.588,0.054-0.854,0.152
							C247.196,464.754,247.578,464.656,247.983,464.656 M251.772,469.098c0.115,0.305,0.181,0.634,0.181,0.979
							c0,1.534-1.244,2.777-2.778,2.777c-1.534,0-2.777-1.243-2.777-2.777c0-0.345,0.066-0.674,0.181-0.979
							c-0.62-0.382-1.035-1.064-1.035-1.846c0-1.197,0.971-2.168,2.168-2.168c0.565,0,1.078,0.218,1.463,0.572
							c0.386-0.354,0.899-0.572,1.464-0.572c1.197,0,2.168,0.971,2.168,2.168C252.807,468.034,252.392,468.716,251.772,469.098"/>
					</g>
					<g>
						<path style="fill:#FFFFFF;" d="M251.666,467.061c0,0.497-0.404,0.901-0.901,0.901c-0.497,0-0.901-0.404-0.901-0.901
							s0.404-0.901,0.901-0.901c0.101,0,0.197,0.017,0.287,0.047c-0.03,0.062-0.045,0.132-0.045,0.204
							c0,0.273,0.221,0.494,0.494,0.494c0.05,0,0.099-0.008,0.146-0.022C251.66,466.941,251.666,467,251.666,467.061"/>
					</g>
					<g>
						<path style="fill:#FFFFFF;" d="M248.255,467.061c0,0.376-0.305,0.681-0.681,0.681c-0.376,0-0.681-0.305-0.681-0.681
							s0.305-0.681,0.681-0.681c0.076,0,0.149,0.013,0.217,0.035c-0.023,0.047-0.034,0.1-0.034,0.155
							c0,0.206,0.167,0.374,0.374,0.374c0.038,0,0.075-0.006,0.11-0.017C248.25,466.97,248.255,467.015,248.255,467.061"/>
					</g>
					<g>
						<g>
							<g>
								<rect x="242.908" y="467.83" style="fill:#FFFFFF;" width="0.616" height="0.616"/>
							</g>
							<g>
								<rect x="254.827" y="467.83" style="fill:#FFFFFF;" width="0.616" height="0.616"/>
							</g>
							<g>
								<path style="fill:#FFFFFF;" d="M255.205,468.082h-0.14c0-3.248-2.642-5.89-5.89-5.89c-3.248,0-5.89,2.642-5.89,5.89h-0.14
									c0-1.611,0.627-3.125,1.766-4.264c1.139-1.139,2.653-1.766,4.264-1.766c1.611,0,3.125,0.627,4.264,1.766
									C254.578,464.957,255.205,466.471,255.205,468.082"/>
							</g>
						</g>
						<g>
							<rect x="248.868" y="461.814" style="fill:#FFFFFF;" width="0.616" height="0.616"/>
						</g>
						<g>
							<rect x="244.95" y="462.052" style="fill:#FFFFFF;" width="8.45" height="0.14"/>
						</g>
						<g>
							<path style="fill:#FFFFFF;" d="M245.174,462.15c0,0.108-0.088,0.196-0.196,0.196c-0.108,0-0.196-0.088-0.196-0.196
								c0-0.108,0.088-0.196,0.196-0.196C245.086,461.954,245.174,462.042,245.174,462.15"/>
						</g>
						<g>
							<path style="fill:#FFFFFF;" d="M253.596,462.15c0,0.108-0.088,0.196-0.196,0.196c-0.108,0-0.196-0.088-0.196-0.196
								c0-0.108,0.088-0.196,0.196-0.196C253.509,461.954,253.596,462.042,253.596,462.15"/>
						</g>
					</g>
				</g>
				<g>
					<path style="fill:#FFFFFF;" d="M314.356,473.409c0,1.559-2.364,1.559-2.364,0C311.993,471.851,314.356,471.851,314.356,473.409
						z"/>
				</g>
				<g>
					<g>
						<g>
							<path style="fill:#FFFFFF;" d="M161.739,466.549l1.772,6.088l1.855-6.088h2.215l-2.823,8.14h-2.33l-0.837-2.396l-0.722-2.708
								l-0.722,2.708l-0.837,2.396h-2.33l-2.839-8.14h2.231l1.855,6.088l1.756-6.088H161.739z"/>
						</g>
						<g>
							<path style="fill:#FFFFFF;" d="M176.713,466.549l1.772,6.088l1.855-6.088h2.215l-2.823,8.14h-2.33l-0.837-2.396l-0.722-2.708
								l-0.722,2.708l-0.837,2.396h-2.33l-2.839-8.14h2.231l1.855,6.088l1.756-6.088H176.713z"/>
						</g>
						<g>
							<path style="fill:#FFFFFF;" d="M191.687,466.549l1.772,6.088l1.855-6.088h2.215l-2.823,8.14h-2.33l-0.837-2.396l-0.722-2.708
								l-0.722,2.708l-0.837,2.396h-2.33l-2.839-8.14h2.231l1.855,6.088l1.756-6.088H191.687z"/>
						</g>
					</g>
					<g>
						<path style="fill:#FFFFFF;" d="M200.908,473.52c0,1.559-2.364,1.559-2.364,0C198.545,471.962,200.908,471.962,200.908,473.52z
							"/>
					</g>
					<g>
						<path style="fill:#FFFFFF;" d="M322.71,473.409c-0.935,0.919-1.919,1.28-3.117,1.28c-2.346,0-4.3-1.411-4.3-4.282
							s1.953-4.284,4.3-4.284c1.149,0,2.035,0.329,2.921,1.199l-1.264,1.329c-0.476-0.428-1.066-0.64-1.623-0.64
							c-1.346,0-2.33,0.985-2.33,2.396c0,1.542,1.05,2.362,2.297,2.362c0.64,0,1.28-0.18,1.772-0.672L322.71,473.409z"/>
					</g>
					<g>
						<path style="fill:#FFFFFF;" d="M331.805,470.472c0,2.33-1.591,4.217-4.217,4.217c-2.626,0-4.201-1.887-4.201-4.217
							c0-2.314,1.609-4.217,4.185-4.217C330.149,466.255,331.805,468.158,331.805,470.472z M325.389,470.472
							c0,1.231,0.739,2.38,2.199,2.38c1.46,0,2.199-1.149,2.199-2.38c0-1.215-0.854-2.396-2.199-2.396
							C326.144,468.077,325.389,469.258,325.389,470.472z"/>
					</g>
					<g>
						<path style="fill:#FFFFFF;" d="M338.572,474.689v-4.332c0-1.068-0.559-2.035-1.658-2.035c-1.082,0-1.722,0.967-1.722,2.035
							v4.332h-2.003v-8.107h1.855l0.148,0.985c0.426-0.82,1.362-1.116,2.133-1.116c0.969,0,1.937,0.394,2.396,1.51
							c0.723-1.149,1.658-1.478,2.708-1.478c2.297,0,3.43,1.412,3.43,3.84v4.365h-2.003v-4.365c0-1.066-0.442-1.97-1.526-1.97
							c-1.082,0-1.756,0.935-1.756,2.003v4.332H338.572z"/>
					</g>
				</g>
			</g>
		</g>
		<g style="opacity:0.61;">
			<g>
				<g>
					<path style="fill:#FFFFFF;" d="M345.988,431.299c-0.006-1.224-0.959-2.121-2.189-2.14c-0.924-0.014-0.832,0.12-0.834-0.867
						c-0.003-1.097-0.007-2.194,0.003-3.292c0.003-0.379-0.112-0.691-0.362-0.976c-2.342-2.668-4.678-5.342-7.019-8.011
						c-0.12-0.137-0.275-0.244-0.414-0.366c-6.214,0-12.427,0-18.641,0c-0.794,0.293-1.14,0.868-1.138,1.709
						c0.01,3.748,0.004,7.496,0.004,11.243c0,0.556-0.003,0.589-0.55,0.551c-1.497-0.102-2.516,0.986-2.497,2.492
						c0.044,3.476,0.013,6.953,0.014,10.429c0.001,1.58,0.867,2.443,2.45,2.449c0.582,0.002,0.582,0.002,0.582,0.6
						c0,2.219-0.001,4.438,0.001,6.657c0.001,1.192,0.58,1.771,1.768,1.771c8.013,0.001,16.027,0.001,24.04,0
						c1.168,0,1.755-0.583,1.757-1.745c0.002-2.256,0-4.512,0.001-6.768c0-0.512,0.002-0.511,0.52-0.515
						c0.271-0.002,0.541,0.008,0.809-0.058c0.996-0.246,1.69-1.044,1.694-2.069C346.003,438.696,346.005,434.997,345.988,431.299z
						 M317.537,417.162c5.337,0,10.674,0,16.01,0c0.548,0,0.554,0.007,0.554,0.561c0.001,2.243-0.001,4.486,0.001,6.73
						c0.001,0.811,0.249,1.059,1.06,1.059c1.91,0.001,3.821,0,5.731,0.001c0.458,0,0.479,0.021,0.481,0.483
						c0.003,0.887,0.002,1.775,0,2.662c-0.001,0.477-0.024,0.498-0.504,0.499c-3.895,0.001-7.79,0-11.684,0
						c-3.882,0-7.765,0-11.647,0c-0.55,0-0.552-0.001-0.552-0.561c-0.001-3.624-0.001-7.247,0-10.871
						C316.987,417.166,316.991,417.162,317.537,417.162z M340.822,451.579c-3.883,0.001-7.766,0-11.65,0c-3.871,0-7.742,0-11.613,0
						c-0.572,0-0.574-0.002-0.574-0.579c-0.001-1.997-0.001-3.994,0.001-5.991c0-0.464,0.023-0.486,0.478-0.487
						c7.803-0.001,15.607-0.001,23.41,0c0.478,0,0.499,0.02,0.499,0.503c0.002,1.997,0.001,3.994,0,5.991
						C341.375,451.574,341.37,451.579,340.822,451.579z"/>
				</g>
				<g>
					<g>
						<rect x="327.418" y="417.053" style="fill:#FFFFFF;" width="1.757" height="1.054"/>
					</g>
					<g>
						<rect x="325.662" y="418.107" style="fill:#FFFFFF;" width="1.757" height="1.054"/>
					</g>
					<g>
						<rect x="327.418" y="419.161" style="fill:#FFFFFF;" width="1.757" height="1.054"/>
					</g>
					<g>
						<rect x="325.662" y="420.215" style="fill:#FFFFFF;" width="1.757" height="1.054"/>
					</g>
					<g>
						<rect x="327.418" y="421.269" style="fill:#FFFFFF;" width="1.757" height="1.054"/>
					</g>
					<g>
						<rect x="325.662" y="422.323" style="fill:#FFFFFF;" width="1.757" height="1.054"/>
					</g>
					<g>
						<rect x="327.418" y="423.378" style="fill:#FFFFFF;" width="1.757" height="1.054"/>
					</g>
					<g>
						<rect x="325.662" y="424.432" style="fill:#FFFFFF;" width="1.757" height="1.054"/>
					</g>
					<g>
						<rect x="327.418" y="425.486" style="fill:#FFFFFF;" width="1.757" height="1.054"/>
					</g>
					<g>
						<rect x="325.662" y="426.54" style="fill:#FFFFFF;" width="1.757" height="1.054"/>
					</g>
					<g>
						<rect x="327.418" y="427.594" style="fill:#FFFFFF;" width="1.757" height="1.054"/>
					</g>
					<g>
						<rect x="325.662" y="428.648" style="fill:#FFFFFF;" width="1.757" height="1.054"/>
					</g>
				</g>
			</g>
			<g>
				<path style="fill:#FFFFFF;" d="M187.637,431.299c-0.006-1.224-0.959-2.121-2.189-2.14c-0.924-0.014-0.832,0.12-0.834-0.867
					c-0.003-1.097-0.007-2.194,0.003-3.292c0.003-0.379-0.112-0.691-0.362-0.976c-2.342-2.668-4.678-5.342-7.019-8.011
					c-0.12-0.137-0.275-0.244-0.414-0.366c-6.214,0-12.427,0-18.641,0c-0.794,0.293-1.14,0.868-1.138,1.709
					c0.01,3.748,0.004,7.496,0.004,11.243c0,0.556-0.003,0.589-0.55,0.551c-1.497-0.102-2.516,0.986-2.497,2.492
					c0.044,3.476,0.013,6.953,0.014,10.429c0.001,1.58,0.867,2.443,2.45,2.449c0.582,0.002,0.582,0.002,0.582,0.6
					c0,2.219-0.001,4.438,0.001,6.657c0.001,1.192,0.58,1.771,1.768,1.771c8.013,0.001,16.027,0.001,24.04,0
					c1.168,0,1.755-0.583,1.757-1.745c0.002-2.256,0-4.512,0.001-6.768c0-0.512,0.002-0.511,0.52-0.515
					c0.271-0.002,0.541,0.008,0.809-0.058c0.996-0.246,1.69-1.044,1.694-2.069C187.652,438.696,187.655,434.997,187.637,431.299z
					 M159.187,417.162c5.337,0,10.674,0,16.01,0c0.548,0,0.554,0.007,0.554,0.561c0.001,2.243-0.001,4.486,0.001,6.73
					c0.001,0.811,0.249,1.059,1.06,1.059c1.91,0.001,3.821,0,5.731,0.001c0.458,0,0.479,0.021,0.481,0.483
					c0.003,0.887,0.002,1.775,0,2.662c-0.001,0.477-0.024,0.498-0.504,0.499c-3.895,0.001-7.79,0-11.684,0
					c-3.882,0-7.765,0-11.647,0c-0.55,0-0.552-0.001-0.552-0.561c-0.001-3.624-0.001-7.247,0-10.871
					C158.636,417.166,158.64,417.162,159.187,417.162z M182.472,451.579c-3.883,0.001-7.766,0-11.65,0c-3.871,0-7.742,0-11.613,0
					c-0.572,0-0.574-0.002-0.574-0.579c-0.001-1.997-0.001-3.994,0.001-5.991c0-0.464,0.023-0.486,0.478-0.487
					c7.803-0.001,15.607-0.001,23.41,0c0.478,0,0.499,0.02,0.499,0.503c0.002,1.997,0.001,3.994,0,5.991
					C183.024,451.574,183.019,451.579,182.472,451.579z"/>
			</g>
			<g>
				<path style="fill:#FFFFFF;" d="M159.779,440.669v-7.897h2.779c0.375,0,0.726,0.061,1.053,0.182
					c0.327,0.121,0.612,0.292,0.855,0.513c0.242,0.221,0.434,0.483,0.573,0.789c0.14,0.305,0.21,0.642,0.21,1.009
					c0,0.375-0.07,0.715-0.21,1.02c-0.14,0.305-0.331,0.568-0.573,0.789c-0.243,0.221-0.528,0.392-0.855,0.513
					c-0.327,0.121-0.678,0.182-1.053,0.182h-1.29v2.901H159.779z M162.58,436.356c0.39,0,0.684-0.111,0.882-0.331
					c0.199-0.22,0.298-0.474,0.298-0.761c0-0.14-0.024-0.276-0.072-0.408c-0.048-0.132-0.121-0.248-0.221-0.347
					c-0.099-0.099-0.223-0.178-0.37-0.237c-0.147-0.059-0.32-0.089-0.518-0.089h-1.312v2.173H162.58z"/>
				<path style="fill:#FFFFFF;" d="M166.308,432.771h1.731l3.177,5.294h0.088l-0.088-1.522v-3.772h1.478v7.897h-1.566l-3.353-5.592
					h-0.088l0.088,1.522v4.07h-1.467V432.771z"/>
				<path style="fill:#FFFFFF;" d="M177.922,436.334h3.872c0.022,0.089,0.04,0.195,0.055,0.32c0.014,0.125,0.022,0.25,0.022,0.375
					c0,0.507-0.077,0.985-0.231,1.434c-0.154,0.449-0.397,0.849-0.728,1.202c-0.353,0.375-0.776,0.666-1.268,0.871
					c-0.493,0.206-1.055,0.309-1.688,0.309c-0.574,0-1.114-0.103-1.622-0.309c-0.507-0.206-0.948-0.492-1.323-0.86
					c-0.375-0.367-0.673-0.803-0.894-1.307c-0.221-0.504-0.331-1.053-0.331-1.649c0-0.595,0.11-1.145,0.331-1.649
					c0.221-0.504,0.518-0.939,0.894-1.307c0.375-0.367,0.816-0.654,1.323-0.86c0.507-0.206,1.048-0.309,1.622-0.309
					c0.64,0,1.211,0.11,1.715,0.331c0.504,0.221,0.935,0.526,1.296,0.915l-1.025,1.004c-0.258-0.272-0.544-0.48-0.861-0.623
					c-0.316-0.143-0.695-0.215-1.136-0.215c-0.361,0-0.703,0.065-1.026,0.193c-0.324,0.129-0.607,0.311-0.85,0.546
					c-0.242,0.235-0.436,0.52-0.579,0.855c-0.143,0.335-0.215,0.708-0.215,1.119c0,0.412,0.072,0.785,0.215,1.12
					c0.143,0.335,0.338,0.62,0.584,0.855c0.246,0.235,0.531,0.418,0.855,0.546c0.323,0.129,0.669,0.193,1.037,0.193
					c0.419,0,0.773-0.061,1.064-0.182c0.29-0.121,0.538-0.278,0.744-0.469c0.148-0.132,0.275-0.3,0.381-0.502
					c0.106-0.202,0.189-0.428,0.248-0.678h-2.482V436.334z"/>
			</g>
			<g>
				<path style="fill:#FFFFFF;" d="M224.019,431.299c-0.006-1.224-0.959-2.121-2.189-2.14c-0.924-0.014-0.832,0.12-0.834-0.867
					c-0.003-1.097-0.007-2.194,0.003-3.292c0.003-0.379-0.112-0.691-0.362-0.976c-2.342-2.668-4.678-5.342-7.019-8.011
					c-0.12-0.137-0.275-0.244-0.414-0.366c-6.214,0-12.427,0-18.641,0c-0.794,0.293-1.14,0.868-1.138,1.709
					c0.01,3.748,0.004,7.496,0.004,11.243c0,0.556-0.003,0.589-0.55,0.551c-1.497-0.102-2.516,0.986-2.497,2.492
					c0.044,3.476,0.013,6.953,0.014,10.429c0.001,1.58,0.867,2.443,2.45,2.449c0.582,0.002,0.582,0.002,0.582,0.6
					c0,2.219-0.001,4.438,0.001,6.657c0.001,1.192,0.58,1.771,1.768,1.771c8.013,0.001,16.027,0.001,24.04,0
					c1.168,0,1.755-0.583,1.757-1.745c0.002-2.256,0-4.512,0.001-6.768c0-0.512,0.002-0.511,0.52-0.515
					c0.271-0.002,0.541,0.008,0.809-0.058c0.997-0.246,1.69-1.044,1.694-2.069C224.034,438.696,224.036,434.997,224.019,431.299z
					 M195.568,417.162c5.337,0,10.674,0,16.01,0c0.548,0,0.554,0.007,0.554,0.561c0.001,2.243-0.001,4.486,0.001,6.73
					c0.001,0.811,0.249,1.059,1.06,1.059c1.91,0.001,3.821,0,5.731,0.001c0.458,0,0.479,0.021,0.481,0.483
					c0.003,0.887,0.002,1.775,0,2.662c-0.001,0.477-0.024,0.498-0.504,0.499c-3.895,0.001-7.79,0-11.684,0
					c-3.882,0-7.765,0-11.647,0c-0.55,0-0.552-0.001-0.552-0.561c-0.001-3.624-0.001-7.247,0-10.871
					C195.018,417.166,195.022,417.162,195.568,417.162z M218.854,451.579c-3.883,0.001-7.766,0-11.65,0c-3.871,0-7.742,0-11.613,0
					c-0.572,0-0.574-0.002-0.574-0.579c-0.001-1.997-0.001-3.994,0.001-5.991c0-0.464,0.023-0.486,0.478-0.487
					c7.803-0.001,15.607-0.001,23.41,0c0.478,0,0.499,0.02,0.499,0.503c0.002,1.997,0.001,3.994,0,5.991
					C219.406,451.574,219.401,451.579,218.854,451.579z"/>
			</g>
			<g>
				<path style="fill:#FFFFFF;" d="M205.111,432.771h1.699l2.967,7.897h-1.644l-0.651-1.886h-3.044l-0.651,1.886h-1.643
					L205.111,432.771z M206.997,437.415l-0.706-1.974l-0.287-0.96h-0.088l-0.287,0.96l-0.706,1.974H206.997z"/>
				<path style="fill:#FFFFFF;" d="M211.331,434.536c-0.125,0-0.245-0.024-0.359-0.072c-0.114-0.048-0.213-0.114-0.298-0.199
					c-0.084-0.084-0.151-0.182-0.198-0.292c-0.048-0.11-0.072-0.232-0.072-0.364s0.024-0.254,0.072-0.364
					c0.048-0.11,0.114-0.208,0.198-0.292c0.084-0.084,0.184-0.151,0.298-0.198c0.114-0.048,0.233-0.072,0.359-0.072
					c0.257,0,0.478,0.09,0.662,0.27c0.184,0.181,0.276,0.399,0.276,0.656s-0.092,0.476-0.276,0.656
					C211.809,434.446,211.589,434.536,211.331,434.536z M210.615,440.669v-5.404h1.445v5.404H210.615z"/>
			</g>
			<g>
				<path style="fill:#FFFFFF;" d="M261.044,431.299c-0.006-1.224-0.959-2.121-2.189-2.14c-0.924-0.014-0.832,0.12-0.834-0.867
					c-0.003-1.097-0.007-2.194,0.003-3.292c0.003-0.379-0.112-0.691-0.362-0.976c-2.342-2.668-4.678-5.342-7.019-8.011
					c-0.12-0.137-0.275-0.244-0.414-0.366c-6.214,0-12.427,0-18.641,0c-0.794,0.293-1.14,0.868-1.138,1.709
					c0.01,3.748,0.004,7.496,0.004,11.243c0,0.556-0.003,0.589-0.55,0.551c-1.497-0.102-2.516,0.986-2.497,2.492
					c0.044,3.476,0.013,6.953,0.014,10.429c0.001,1.58,0.867,2.443,2.45,2.449c0.582,0.002,0.582,0.002,0.582,0.6
					c0,2.219-0.001,4.438,0.001,6.657c0.001,1.192,0.58,1.771,1.768,1.771c8.013,0.001,16.027,0.001,24.04,0
					c1.168,0,1.755-0.583,1.757-1.745c0.002-2.256,0-4.512,0.001-6.768c0-0.512,0.002-0.511,0.52-0.515
					c0.271-0.002,0.541,0.008,0.809-0.058c0.996-0.246,1.69-1.044,1.694-2.069C261.059,438.696,261.061,434.997,261.044,431.299z
					 M232.593,417.162c5.337,0,10.674,0,16.01,0c0.548,0,0.554,0.007,0.554,0.561c0.001,2.243-0.001,4.486,0.001,6.73
					c0.001,0.811,0.249,1.059,1.06,1.059c1.91,0.001,3.821,0,5.731,0.001c0.458,0,0.479,0.021,0.481,0.483
					c0.003,0.887,0.002,1.775,0,2.662c-0.001,0.477-0.024,0.498-0.504,0.499c-3.895,0.001-7.79,0-11.684,0
					c-3.882,0-7.765,0-11.647,0c-0.55,0-0.552-0.001-0.552-0.561c-0.001-3.624-0.001-7.247,0-10.871
					C232.042,417.166,232.047,417.162,232.593,417.162z M255.878,451.579c-3.883,0.001-7.766,0-11.65,0c-3.871,0-7.742,0-11.613,0
					c-0.572,0-0.574-0.002-0.574-0.579c-0.001-1.997-0.001-3.994,0.001-5.991c0-0.464,0.023-0.486,0.478-0.487
					c7.803-0.001,15.607-0.001,23.41,0c0.478,0,0.499,0.02,0.499,0.503c0.002,1.997,0.001,3.994,0,5.991
					C256.431,451.574,256.426,451.579,255.878,451.579z"/>
			</g>
			<g>
				<path style="fill:#FFFFFF;" d="M236.361,440.845c-0.338,0-0.662-0.048-0.971-0.143c-0.309-0.095-0.592-0.239-0.849-0.43
					c-0.257-0.191-0.481-0.425-0.673-0.7c-0.191-0.276-0.342-0.597-0.452-0.965l1.401-0.551c0.103,0.397,0.283,0.726,0.54,0.987
					c0.257,0.261,0.596,0.392,1.015,0.392c0.154,0,0.303-0.02,0.447-0.061c0.143-0.04,0.272-0.099,0.386-0.176
					s0.204-0.175,0.27-0.292c0.066-0.118,0.099-0.254,0.099-0.408c0-0.147-0.026-0.279-0.077-0.397
					c-0.051-0.117-0.138-0.227-0.259-0.331c-0.121-0.103-0.28-0.202-0.475-0.298c-0.195-0.095-0.435-0.195-0.722-0.298l-0.485-0.176
					c-0.213-0.073-0.429-0.173-0.645-0.298c-0.217-0.125-0.413-0.276-0.59-0.452c-0.177-0.176-0.322-0.384-0.436-0.623
					c-0.114-0.239-0.171-0.509-0.171-0.81c0-0.309,0.06-0.597,0.182-0.866c0.121-0.268,0.294-0.503,0.518-0.706
					c0.224-0.202,0.492-0.36,0.805-0.474s0.66-0.171,1.042-0.171c0.397,0,0.74,0.053,1.031,0.16
					c0.291,0.107,0.537,0.243,0.739,0.408c0.202,0.165,0.366,0.348,0.491,0.546c0.125,0.199,0.217,0.386,0.276,0.563l-1.312,0.551
					c-0.074-0.221-0.208-0.419-0.402-0.596c-0.195-0.176-0.462-0.265-0.8-0.265c-0.324,0-0.592,0.075-0.805,0.226
					c-0.213,0.151-0.32,0.348-0.32,0.59c0,0.235,0.103,0.436,0.309,0.601c0.206,0.165,0.533,0.325,0.982,0.48l0.497,0.165
					c0.316,0.111,0.605,0.237,0.866,0.381c0.261,0.143,0.485,0.314,0.673,0.513c0.187,0.199,0.331,0.425,0.43,0.678
					c0.1,0.254,0.149,0.546,0.149,0.877c0,0.412-0.083,0.767-0.248,1.064c-0.165,0.298-0.377,0.542-0.634,0.734
					c-0.258,0.191-0.548,0.335-0.872,0.43C236.986,440.797,236.67,440.845,236.361,440.845z"/>
				<path style="fill:#FFFFFF;" d="M239.516,432.771h1.61l1.633,4.754l0.287,1.015h0.088l0.309-1.015l1.699-4.754h1.61l-2.879,7.897
					h-1.566L239.516,432.771z"/>
				<path style="fill:#FFFFFF;" d="M251.097,436.334h3.871c0.022,0.089,0.04,0.195,0.055,0.32c0.015,0.125,0.023,0.25,0.023,0.375
					c0,0.507-0.078,0.985-0.232,1.434c-0.154,0.449-0.397,0.849-0.728,1.202c-0.353,0.375-0.775,0.666-1.268,0.871
					c-0.493,0.206-1.055,0.309-1.688,0.309c-0.574,0-1.114-0.103-1.621-0.309c-0.507-0.206-0.949-0.492-1.324-0.86
					c-0.375-0.367-0.673-0.803-0.894-1.307c-0.22-0.504-0.331-1.053-0.331-1.649c0-0.595,0.11-1.145,0.331-1.649
					c0.221-0.504,0.518-0.939,0.894-1.307c0.375-0.367,0.816-0.654,1.324-0.86c0.507-0.206,1.047-0.309,1.621-0.309
					c0.64,0,1.211,0.11,1.715,0.331c0.504,0.221,0.936,0.526,1.296,0.915l-1.026,1.004c-0.257-0.272-0.544-0.48-0.861-0.623
					c-0.316-0.143-0.694-0.215-1.136-0.215c-0.36,0-0.702,0.065-1.026,0.193c-0.323,0.129-0.607,0.311-0.849,0.546
					c-0.243,0.235-0.436,0.52-0.579,0.855c-0.143,0.335-0.215,0.708-0.215,1.119c0,0.412,0.072,0.785,0.215,1.12
					c0.143,0.335,0.338,0.62,0.585,0.855c0.246,0.235,0.531,0.418,0.854,0.546c0.324,0.129,0.669,0.193,1.037,0.193
					c0.419,0,0.774-0.061,1.064-0.182c0.29-0.121,0.539-0.278,0.745-0.469c0.147-0.132,0.274-0.3,0.38-0.502
					c0.107-0.202,0.189-0.428,0.248-0.678h-2.482V436.334z"/>
			</g>
			<g>
				<path style="fill:#FFFFFF;" d="M297.3,431.299c-0.006-1.224-0.959-2.121-2.189-2.14c-0.924-0.014-0.832,0.12-0.834-0.867
					c-0.003-1.097-0.007-2.194,0.003-3.292c0.003-0.379-0.112-0.691-0.362-0.976c-2.342-2.668-4.678-5.342-7.019-8.011
					c-0.12-0.137-0.275-0.244-0.414-0.366c-6.214,0-12.427,0-18.641,0c-0.794,0.293-1.14,0.868-1.138,1.709
					c0.01,3.748,0.004,7.496,0.004,11.243c0,0.556-0.003,0.589-0.55,0.551c-1.497-0.102-2.516,0.986-2.497,2.492
					c0.044,3.476,0.013,6.953,0.014,10.429c0.001,1.58,0.867,2.443,2.45,2.449c0.582,0.002,0.582,0.002,0.582,0.6
					c0,2.219-0.001,4.438,0.001,6.657c0.001,1.192,0.58,1.771,1.768,1.771c8.013,0.001,16.027,0.001,24.04,0
					c1.168,0,1.755-0.583,1.757-1.745c0.002-2.256,0-4.512,0.001-6.768c0-0.512,0.002-0.511,0.52-0.515
					c0.271-0.002,0.541,0.008,0.809-0.058c0.996-0.246,1.69-1.044,1.694-2.069C297.315,438.696,297.318,434.997,297.3,431.299z
					 M268.85,417.162c5.337,0,10.674,0,16.01,0c0.548,0,0.554,0.007,0.554,0.561c0.001,2.243-0.001,4.486,0.001,6.73
					c0.001,0.811,0.249,1.059,1.06,1.059c1.91,0.001,3.821,0,5.731,0.001c0.458,0,0.479,0.021,0.481,0.483
					c0.003,0.887,0.002,1.775,0,2.662c-0.001,0.477-0.024,0.498-0.504,0.499c-3.895,0.001-7.79,0-11.684,0
					c-3.882,0-7.765,0-11.647,0c-0.55,0-0.552-0.001-0.552-0.561c-0.001-3.624-0.001-7.247,0-10.871
					C268.299,417.166,268.303,417.162,268.85,417.162z M292.135,451.579c-3.883,0.001-7.766,0-11.65,0c-3.871,0-7.742,0-11.613,0
					c-0.572,0-0.574-0.002-0.574-0.579c-0.001-1.997-0.001-3.994,0.001-5.991c0-0.464,0.023-0.486,0.478-0.487
					c7.803-0.001,15.607-0.001,23.41,0c0.478,0,0.499,0.02,0.499,0.503c0.001,1.997,0.001,3.994,0,5.991
					C292.687,451.574,292.682,451.579,292.135,451.579z"/>
			</g>
			<g>
				<path style="fill:#FFFFFF;" d="M272.966,434.183v1.831h3.165v1.412h-3.165v1.831h3.518v1.412h-5.007v-7.897h5.007v1.412H272.966
					z"/>
				<path style="fill:#FFFFFF;" d="M277.852,440.669v-7.897h2.779c0.375,0,0.726,0.061,1.053,0.182
					c0.327,0.121,0.612,0.292,0.855,0.513c0.243,0.221,0.434,0.483,0.574,0.789c0.14,0.305,0.209,0.642,0.209,1.009
					c0,0.375-0.07,0.715-0.209,1.02c-0.14,0.305-0.331,0.568-0.574,0.789c-0.243,0.221-0.528,0.392-0.855,0.513
					c-0.327,0.121-0.678,0.182-1.053,0.182h-1.29v2.901H277.852z M280.653,436.356c0.389,0,0.684-0.111,0.882-0.331
					c0.199-0.22,0.298-0.474,0.298-0.761c0-0.14-0.024-0.276-0.072-0.408c-0.048-0.132-0.121-0.248-0.221-0.347
					c-0.099-0.099-0.222-0.178-0.37-0.237c-0.147-0.059-0.32-0.089-0.518-0.089h-1.312v2.173H280.653z"/>
				<path style="fill:#FFFFFF;" d="M286.797,440.845c-0.338,0-0.662-0.048-0.971-0.143c-0.309-0.095-0.592-0.239-0.849-0.43
					c-0.257-0.191-0.482-0.425-0.673-0.7c-0.191-0.276-0.342-0.597-0.452-0.965l1.401-0.551c0.103,0.397,0.283,0.726,0.541,0.987
					c0.257,0.261,0.595,0.392,1.015,0.392c0.154,0,0.303-0.02,0.447-0.061c0.143-0.04,0.272-0.099,0.386-0.176
					c0.114-0.077,0.204-0.175,0.27-0.292c0.066-0.118,0.1-0.254,0.1-0.408c0-0.147-0.026-0.279-0.077-0.397
					c-0.051-0.117-0.138-0.227-0.259-0.331c-0.121-0.103-0.279-0.202-0.474-0.298c-0.195-0.095-0.436-0.195-0.723-0.298
					l-0.485-0.176c-0.213-0.073-0.428-0.173-0.645-0.298c-0.217-0.125-0.414-0.276-0.59-0.452c-0.176-0.176-0.322-0.384-0.436-0.623
					c-0.114-0.239-0.171-0.509-0.171-0.81c0-0.309,0.061-0.597,0.182-0.866c0.121-0.268,0.294-0.503,0.518-0.706
					c0.224-0.202,0.493-0.36,0.805-0.474c0.312-0.114,0.66-0.171,1.042-0.171c0.397,0,0.741,0.053,1.031,0.16
					c0.29,0.107,0.537,0.243,0.739,0.408c0.202,0.165,0.365,0.348,0.491,0.546c0.125,0.199,0.217,0.386,0.276,0.563l-1.312,0.551
					c-0.074-0.221-0.208-0.419-0.403-0.596c-0.195-0.176-0.462-0.265-0.799-0.265c-0.324,0-0.592,0.075-0.805,0.226
					c-0.213,0.151-0.32,0.348-0.32,0.59c0,0.235,0.103,0.436,0.309,0.601c0.206,0.165,0.533,0.325,0.982,0.48l0.496,0.165
					c0.316,0.111,0.605,0.237,0.866,0.381c0.261,0.143,0.485,0.314,0.673,0.513c0.187,0.199,0.331,0.425,0.43,0.678
					c0.099,0.254,0.149,0.546,0.149,0.877c0,0.412-0.083,0.767-0.248,1.064c-0.165,0.298-0.377,0.542-0.634,0.734
					c-0.258,0.191-0.548,0.335-0.872,0.43C287.422,440.797,287.105,440.845,286.797,440.845z"/>
			</g>
			<g>
				<path style="fill:#FFFFFF;" d="M321.394,439.168l4.004-4.985h-3.827v-1.412h5.559v1.5l-3.96,4.985h4.004v1.412h-5.779V439.168z"
					/>
				<path style="fill:#FFFFFF;" d="M328.409,432.771h1.489v7.897h-1.489V432.771z"/>
				<path style="fill:#FFFFFF;" d="M331.486,440.669v-7.897h2.779c0.375,0,0.726,0.061,1.053,0.182
					c0.327,0.121,0.612,0.292,0.855,0.513s0.434,0.483,0.574,0.789c0.14,0.305,0.209,0.642,0.209,1.009
					c0,0.375-0.07,0.715-0.209,1.02c-0.14,0.305-0.331,0.568-0.574,0.789c-0.243,0.221-0.528,0.392-0.855,0.513
					c-0.327,0.121-0.678,0.182-1.053,0.182h-1.29v2.901H331.486z M334.288,436.356c0.389,0,0.684-0.111,0.882-0.331
					c0.199-0.22,0.298-0.474,0.298-0.761c0-0.14-0.024-0.276-0.072-0.408c-0.048-0.132-0.121-0.248-0.221-0.347
					c-0.099-0.099-0.222-0.178-0.37-0.237c-0.147-0.059-0.32-0.089-0.518-0.089h-1.312v2.173H334.288z"/>
			</g>
		</g>
		<g style="opacity:0.61;">
			<path style="fill:#FFFFFF;" d="M300.133,433.27h9.067v2.242h-9.067V433.27z M300.133,437.136h9.067v2.243h-9.067V437.136z"/>
		</g>
	</g>
	<g style="opacity:0.61;">
		<path style="fill:#FFFFFF;" d="M156.756,478.878h1.607c1.263,0,2.114,0.812,2.114,1.974c0,1.161-0.851,1.973-2.114,1.973h-1.607
			V478.878z M158.34,482.464c1.049,0,1.725-0.665,1.725-1.612c0-0.947-0.677-1.613-1.725-1.613h-1.167v3.225H158.34z"/>
		<path style="fill:#FFFFFF;" d="M165.139,480.851c0-1.15,0.879-2.007,2.075-2.007c1.184,0,2.069,0.851,2.069,2.007
			c0,1.156-0.885,2.007-2.069,2.007C166.019,482.858,165.139,482.002,165.139,480.851z M168.866,480.851
			c0-0.942-0.705-1.635-1.652-1.635c-0.953,0-1.663,0.693-1.663,1.635c0,0.941,0.71,1.635,1.663,1.635
			C168.162,482.486,168.866,481.793,168.866,480.851z"/>
		<path style="fill:#FFFFFF;" d="M179.596,478.878l-1.331,3.947h-0.44l-1.156-3.366l-1.161,3.366h-0.434l-1.331-3.947h0.429
			l1.139,3.394l1.178-3.394h0.389l1.161,3.411l1.156-3.411H179.596z"/>
		<path style="fill:#FFFFFF;" d="M187.731,478.878v3.947h-0.344l-2.537-3.202v3.202h-0.417v-3.947h0.344l2.543,3.203v-3.203H187.731
			z"/>
		<path style="fill:#FFFFFF;" d="M193.093,478.878h0.417v3.586h2.21v0.361h-2.627V478.878z"/>
		<path style="fill:#FFFFFF;" d="M200.061,480.851c0-1.15,0.879-2.007,2.075-2.007c1.184,0,2.069,0.851,2.069,2.007
			c0,1.156-0.885,2.007-2.069,2.007C200.941,482.858,200.061,482.002,200.061,480.851z M203.788,480.851
			c0-0.942-0.705-1.635-1.652-1.635c-0.953,0-1.663,0.693-1.663,1.635c0,0.941,0.71,1.635,1.663,1.635
			C203.083,482.486,203.788,481.793,203.788,480.851z"/>
		<path style="fill:#FFFFFF;" d="M211.636,481.77h-2.199l-0.474,1.054h-0.434l1.804-3.947h0.412l1.804,3.947h-0.44L211.636,481.77z
			 M211.484,481.432l-0.947-2.12l-0.947,2.12H211.484z"/>
		<path style="fill:#FFFFFF;" d="M217.28,478.878h1.607c1.263,0,2.114,0.812,2.114,1.974c0,1.161-0.851,1.973-2.114,1.973h-1.607
			V478.878z M218.864,482.464c1.049,0,1.725-0.665,1.725-1.612c0-0.947-0.677-1.613-1.725-1.613h-1.167v3.225H218.864z"/>
		<path style="fill:#FFFFFF;" d="M234.041,481.77h-2.199l-0.474,1.054h-0.434l1.804-3.947h0.412l1.804,3.947h-0.44L234.041,481.77z
			 M233.889,481.432l-0.947-2.12l-0.947,2.12H233.889z"/>
		<path style="fill:#FFFFFF;" d="M239.685,478.878h0.417v3.586h2.21v0.361h-2.627V478.878z"/>
		<path style="fill:#FFFFFF;" d="M247.082,478.878h0.417v3.586h2.21v0.361h-2.627V478.878z"/>
		<path style="fill:#FFFFFF;" d="M260.449,479.239v1.551h2.041v0.361h-2.041v1.675h-0.417v-3.947h2.706v0.361H260.449z"/>
		<path style="fill:#FFFFFF;" d="M267.678,478.878h0.417v3.947h-0.417V478.878z"/>
		<path style="fill:#FFFFFF;" d="M273.456,478.878h0.417v3.586h2.21v0.361h-2.627V478.878z"/>
		<path style="fill:#FFFFFF;" d="M283.644,482.464v0.361h-2.791v-3.947h2.706v0.361h-2.289v1.404h2.041v0.355h-2.041v1.466H283.644z
			"/>
		<path style="fill:#FFFFFF;" d="M294.672,479.239v1.551h2.041v0.361h-2.041v1.675h-0.417v-3.947h2.706v0.361H294.672z"/>
		<path style="fill:#FFFFFF;" d="M301.5,480.851c0-1.15,0.879-2.007,2.075-2.007c1.184,0,2.069,0.851,2.069,2.007
			c0,1.156-0.885,2.007-2.069,2.007C302.379,482.858,301.5,482.002,301.5,480.851z M305.226,480.851
			c0-0.942-0.705-1.635-1.652-1.635c-0.953,0-1.663,0.693-1.663,1.635c0,0.941,0.71,1.635,1.663,1.635
			C304.522,482.486,305.226,481.793,305.226,480.851z"/>
		<path style="fill:#FFFFFF;" d="M313.351,482.825l-0.902-1.269c-0.102,0.011-0.203,0.017-0.316,0.017h-1.06v1.252h-0.417v-3.947
			h1.477c1.004,0,1.613,0.507,1.613,1.353c0,0.62-0.327,1.054-0.902,1.24l0.964,1.353H313.351z M313.328,480.231
			c0-0.632-0.417-0.992-1.207-0.992h-1.048v1.979h1.048C312.911,481.218,313.328,480.851,313.328,480.231z"/>
		<path style="fill:#FFFFFF;" d="M322.907,478.878v3.947h-0.4v-3.158l-1.551,2.656h-0.197l-1.551-2.639v3.14h-0.4v-3.947h0.344
			l1.714,2.926l1.697-2.926H322.907z"/>
		<path style="fill:#FFFFFF;" d="M330.744,481.77h-2.199l-0.473,1.054h-0.434l1.804-3.947h0.411l1.804,3.947h-0.44L330.744,481.77z
			 M330.592,481.432l-0.947-2.12l-0.947,2.12H330.592z"/>
		<path style="fill:#FFFFFF;" d="M336.957,479.239h-1.387v-0.361h3.192v0.361h-1.387v3.586h-0.417V479.239z"/>
		<path style="fill:#FFFFFF;" d="M343.063,482.346l0.164-0.321c0.282,0.276,0.784,0.479,1.302,0.479c0.739,0,1.06-0.31,1.06-0.699
			c0-1.083-2.43-0.417-2.43-1.877c0-0.581,0.451-1.083,1.455-1.083c0.446,0,0.908,0.13,1.224,0.35l-0.141,0.333
			c-0.338-0.22-0.733-0.327-1.083-0.327c-0.722,0-1.043,0.321-1.043,0.716c0,1.083,2.43,0.429,2.43,1.866
			c0,0.581-0.462,1.077-1.472,1.077C343.937,482.858,343.356,482.65,343.063,482.346z"/>
	</g>
</g>
<g>
</g>
<g>
	<path style="fill:#EC1248;" d="M475,279.237c-1.099,1.162-2.141,2.386-3.307,3.478c-7.815,7.324-17.058,8.574-26.837,5.449
		c-9.475-3.028-14.874-10.027-16.398-19.779c-2.157-13.802,5.556-25.978,18.588-28.96c9.921-2.27,18.87-0.379,25.704,7.915
		c0.859,1.043,1.135,1.715-0.288,2.529c-1.511,0.864-2.936,1.91-4.283,3.018c-1.009,0.83-1.561,0.715-2.315-0.33
		c-5.134-7.114-16.805-7.128-22.373-2.274c-5.758,5.02-7.074,11.48-5.488,18.555c1.424,6.354,5.423,10.709,11.947,12.03
		c6.477,1.312,12.344-0.101,16.725-5.424c1.074-1.305,1.745-1.237,2.942-0.304c1.718,1.339,3.581,2.492,5.382,3.724
		C475,278.987,475,279.112,475,279.237z"/>
	<path style="fill:#EC1248;" d="M247.214,226.419c-6.171-14.308-12.36-28.605-18.497-42.924c-0.878-2.042-2.046-3.982-2.455-6.212
		h-1.501c-0.169,0.529-0.293,1.077-0.51,1.584c-5.138,11.966-10.292,23.928-15.438,35.894c-1.914,4.455-3.821,8.911-5.837,13.614
		c2.849,0,5.454-0.03,8.059,0.019c0.837,0.015,1.047-0.518,1.284-1.096c0.646-1.554,1.321-3.097,1.903-4.677
		c0.3-0.818,0.724-1.126,1.633-1.119c6.313,0.041,12.63,0.041,18.943,0c0.912-0.008,1.332,0.3,1.633,1.122
		c0.582,1.58,1.257,3.119,1.903,4.677c0.236,0.578,0.45,1.107,1.287,1.092c2.721-0.045,5.45-0.019,8.348-0.019
		C247.657,227.563,247.458,226.982,247.214,226.419z M218.035,213.586c2.417-5.761,4.793-11.425,7.353-17.532
		c2.511,6.062,4.857,11.729,7.255,17.532H218.035z"/>
	<path style="fill:#EC1248;" d="M382.302,226.685c-7.15-16.455-14.244-32.932-21.353-49.402h-1.126
		c-2.819,6.587-5.63,13.171-8.453,19.754c-4.226,9.845-8.411,19.709-12.72,29.517c-0.758,1.73-0.304,1.952,1.295,1.847
		c1.618-0.105,3.254-0.116,4.872,0.008c1.453,0.109,2.312-0.259,2.729-1.783c0.379-1.37,1.118-2.635,1.599-3.982
		c0.297-0.829,0.728-1.145,1.636-1.141c6.309,0.041,12.623,0.038,18.932,0.004c0.875-0.008,1.359,0.251,1.667,1.085
		c0.582,1.576,1.306,3.1,1.877,4.68c0.304,0.848,0.766,1.149,1.655,1.126c2.061-0.056,4.129-0.094,6.186,0.008
		C382.587,228.475,382.951,228.179,382.302,226.685z M352.984,213.533c2.44-5.799,4.823-11.455,7.349-17.465
		c2.485,5.994,4.827,11.643,7.237,17.465H352.984z"/>
	<path style="fill:#EC1248;" d="M324.931,322.716h-3.753c-0.098-4.53-0.927-8.986-1.276-14.083
		c-2.462,3.843-4.635,7.229-6.917,10.787c-0.019,0-0.038-0.004-0.056-0.004c-2.331-3.611-4.489-6.963-6.655-10.314
		c-0.128,0.038-0.255,0.075-0.379,0.113c-0.409,4.5-0.814,9.001-1.224,13.501h-3.374c0.559-5.514,1.111-11.027,1.678-16.541
		c0.221-2.143,0.469-4.283,0.766-6.996c3.235,4.992,6.186,9.549,9.282,14.33c3.067-4.733,6.017-9.286,9.245-14.27
		C323.19,307.364,324.061,315.04,324.931,322.716z"/>
	<path style="fill:#EC1248;" d="M395.379,310.483c-0.447-5.664-3.896-9.376-9.567-10.359c-2.488-0.432-4.996-0.086-7.481-0.266
		c-1.381-0.101-1.633,0.432-1.625,1.693c0.049,7.053,0.008,14.109,0,21.165h10.13c0.146-0.349,0.492-0.315,0.777-0.413
		C392.917,320.497,395.822,316.072,395.379,310.483z M390.856,315.4c-1.4,3.149-4.144,4.132-7.319,4.286
		c-3.123,0.15-3.127,0.124-3.127-2.905v-5.431c0-2.312,0.038-4.62-0.019-6.933c-0.023-0.942,0.218-1.415,1.246-1.291
		c0.492,0.064,0.998,0.011,1.498,0.026C390.019,303.318,393.667,309.08,390.856,315.4z"/>
	<path style="fill:#EC1248;" d="M227.107,301.592c-0.094,7.041-0.075,14.083-0.098,21.124h-0.747
		c-4.628-4.872-9.252-9.748-13.876-14.619c-0.128,0.086-0.255,0.176-0.383,0.263v14.357h-3.374v-23.47
		c5.168,5.394,9.958,10.389,15.062,15.715c0-4.733,0.041-9.008-0.026-13.28c-0.023-1.28,0.146-1.892,1.678-1.858
		C226.728,299.854,227.129,300.177,227.107,301.592z"/>
	<path style="fill:#EC1348;" d="M357.196,322.717c0.378-3.669,0.102-7.348,0.157-11.021c0.051-3.37,0.076-6.744-0.019-10.112
		c-0.04-1.425,0.429-1.776,1.81-1.74c3.809,0.098,7.623,0.092,11.433,0.002c1.314-0.031,1.572,0.462,1.528,1.622
		c-0.04,1.046-0.05,1.771-1.474,1.711c-2.682-0.112-5.373,0.015-8.058-0.054c-1.154-0.03-1.684,0.202-1.618,1.518
		c0.112,2.242,0.077,4.494,0.01,6.74c-0.029,0.997,0.312,1.288,1.281,1.266c2.436-0.056,4.876,0.047,7.309-0.044
		c1.266-0.047,1.25,0.646,1.213,1.516c-0.036,0.842,0.254,1.78-1.213,1.725c-2.371-0.088-4.753,0.078-7.12-0.055
		c-1.813-0.102-1.439,1.053-1.447,2.058c-0.007,0.963-0.289,1.981,1.395,1.893c2.679-0.14,5.377,0.066,8.056-0.075
		c1.685-0.089,2.43,0.374,2.118,2.116c-0.054,0.3,0.011,0.622,0.022,0.934C367.451,322.717,362.323,322.717,357.196,322.717z"/>
	<path style="fill:#EC1248;" d="M166.208,300.03c-1.971-0.263-4.001-0.011-5.99-0.18c-1.554-0.135-1.835,0.473-1.824,1.888
		c0.045,6.993-0.015,13.985-0.038,20.978h3.75c0-0.435-0.015-0.874-0.004-1.31c0.034-1.239-0.349-2.766,0.236-3.633
		c0.578-0.856,2.203-0.225,3.367-0.342c5.078-0.503,8.269-3.562,8.423-8.126C174.308,303.986,171.635,300.762,166.208,300.03z
		 M170.378,309.399c-0.218,3.498-4.545,6.133-7.815,4.789c-0.473-0.195-0.454-0.525-0.454-0.886
		c-0.008-3.059-0.038-6.118,0.004-9.177c0.026-1.918,1.629-0.349,2.031-0.965C168.771,303.266,170.644,305.21,170.378,309.399z"/>
	<path style="fill:#EC1348;" d="M186.356,299.208c-3.431,8.074-6.711,15.791-9.992,23.507h3.75c0.769-3.006,0.769-3.006,3.716-3.006
		h5.195c2.856,0,2.856,0,3.472,3.006h4.125C193.247,314.987,189.873,307.259,186.356,299.208z M188.916,316.44
		c-1.745-0.026-3.491-0.03-5.236,0.004c-0.965,0.015-0.998-0.342-0.661-1.122c1.092-2.504,2.124-5.033,3.337-7.931
		c1.212,2.928,2.233,5.457,3.311,7.961C190.042,316.222,189.775,316.455,188.916,316.44z"/>
	<path style="fill:#EC1248;" d="M253.648,322.717c-1.155-0.999-2.645-1.619-3.474-2.976c-0.294-0.482-1.306-1.117-0.28-1.602
		c0.868-0.411,1.766-1.962,2.987-0.406c1.552,1.977,3.608,2.546,6.016,2.046c1.32-0.274,2.347-0.919,2.603-2.336
		c0.265-1.464-0.355-2.612-1.619-3.294c-1.809-0.975-3.732-1.743-5.524-2.745c-3.155-1.763-4.386-4.646-3.428-7.673
		c0.846-2.673,2.858-3.884,5.472-4.104c2.704-0.228,5.048,0.617,6.737,2.895c0.417,0.562,0.284,0.968-0.29,1.163
		c-0.796,0.271-1.335,1.801-2.432,0.638c-0.912-0.967-1.927-1.537-3.277-1.51c-1.289,0.026-2.359,0.38-2.791,1.732
		c-0.46,1.439-0.034,2.657,1.251,3.386c1.569,0.889,3.247,1.586,4.86,2.399c2.049,1.033,3.889,2.262,4.486,4.704
		c0.845,3.457-0.571,5.883-3.42,7.685C258.901,322.717,256.274,322.717,253.648,322.717z"/>
	<path style="fill:#EC1349;" d="M237.141,322.717c0.019-6.109,0.018-12.219,0.077-18.327c0.01-1-0.322-1.301-1.286-1.257
		c-1.432,0.066-2.876-0.068-4.304,0.039c-1.435,0.108-1.251-0.792-1.243-1.666c0.007-0.86-0.204-1.684,1.241-1.659
		c4.929,0.086,9.861,0.086,14.789,0c1.425-0.025,1.265,0.767,1.26,1.647c-0.004,0.867,0.199,1.786-1.24,1.677
		c-1.365-0.103-2.749,0.049-4.116-0.043c-1.139-0.077-1.489,0.273-1.476,1.446c0.067,6.047,0.042,12.095,0.049,18.143
		C239.642,322.717,238.391,322.717,237.141,322.717z"/>
	<path style="fill:#EC1348;" d="M343.69,322.717c-0.019-5.919-0.093-11.839-0.02-17.758c0.018-1.502-0.425-1.971-1.879-1.835
		c-1.237,0.116-2.498-0.048-3.739,0.042c-1.399,0.102-1.265-0.783-1.278-1.681c-0.013-0.928-0.063-1.655,1.303-1.635
		c4.927,0.075,9.856,0.075,14.783,0.001c1.44-0.022,1.209,0.825,1.245,1.689c0.04,0.966,0.001,1.726-1.333,1.628
		c-1.303-0.096-2.625,0.06-3.927-0.043c-1.303-0.103-1.701,0.339-1.684,1.658c0.07,5.359,0.033,10.719,0.024,16.078
		c-0.001,0.618-0.077,1.236-0.118,1.854C345.941,322.717,344.815,322.717,343.69,322.717z"/>
	<path style="fill:#EC1348;" d="M275.033,322.717c0.03-7.035,0.052-14.071,0.107-21.106c0.004-0.562-0.367-1.457,0.416-1.625
		c0.946-0.202,2.01-0.197,2.947,0.031c0.548,0.133,0.27,1,0.272,1.533c0.017,5.481,0.061,10.963-0.024,16.443
		c-0.022,1.393,0.324,1.83,1.742,1.746c2.174-0.129,4.369,0.076,6.541-0.071c1.569-0.106,2.177,0.371,1.902,1.929
		c-0.064,0.363-0.017,0.746-0.02,1.119C284.287,322.717,279.66,322.717,275.033,322.717z"/>
	<path style="fill:#EC1349;" d="M292.666,322.717c0.006-7.047,0.055-14.094-0.019-21.14c-0.015-1.43,0.392-1.804,1.777-1.742
		c1.262,0.056,2.007,0.057,1.985,1.745c-0.092,7.045-0.009,14.091,0.009,21.137C295.167,322.717,293.917,322.717,292.666,322.717z"
		/>
	<path style="fill:#EC144A;" d="M199.999,322.717c-0.011-7.166,0.026-14.333-0.071-21.498c-0.021-1.536,0.805-1.372,1.751-1.343
		c0.944,0.029,1.974-0.337,1.952,1.365c-0.084,6.48-0.038,12.961-0.026,19.442c0.001,0.678,0.095,1.356,0.145,2.033
		C202.5,322.717,201.249,322.717,199.999,322.717z"/>
	<path style="fill:#EC1248;" d="M329.808,322.717c-0.019-7.183-0.003-14.366-0.088-21.548c-0.016-1.371,0.694-1.403,1.62-1.277
		c0.778,0.106,1.998-0.591,1.982,1.102c-0.069,7.241-0.095,14.482-0.137,21.722C332.059,322.717,330.934,322.717,329.808,322.717z"
		/>
	<path style="fill:#66CCD8;" d="M123.483,178.052c-0.796,0.161-1.599,0.225-2.413,0.225c-13.047-0.011-26.094,0-39.14-0.019
		c-1.088-0.004-2.275,0.27-3.179-0.676c7.229,0.023,14.458,0.06,21.687,0.071c7.045,0.015,14.086-0.004,21.132,0.019
		C122.214,177.673,122.958,177.38,123.483,178.052z"/>
	<path style="fill:#F8FCFD;" d="M42.507,180.995c-3.397-0.492-6.816-0.135-10.22-0.218c-2.297-0.056-4.594-0.011-7.105-0.011
		c0.811-1.385,1.91-2.241,2.931-3.172h0.169c0.007,0.053,0.004,0.109-0.011,0.165c-0.004,0.034-0.015,0.071-0.03,0.109
		c-0.304,0.769-1.107,1.167-1.464,1.937c0.42,0.574,1.028,0.304,1.528,0.308c3.99,0.026,7.983-0.015,11.973,0.038
		C41.077,180.162,42.091,179.869,42.507,180.995z"/>
	<path style="fill:#69CDD9;" d="M43.235,177.594c-0.544,0.664-1.321,0.649-2.057,0.657c-3.671,0.041-7.342,0.041-11.012,0
		c-0.668-0.008-1.37,0.004-1.895-0.492c-0.056-0.049-0.109-0.105-0.158-0.165H43.235z"/>
	<path style="fill:#EC1248;" d="M315.591,246.834c-8.808,0.827-13.853,4.611-15.952,11.81c-2.69,9.228,1.557,18.843,9.842,21.648
		c12.037,4.074,23.368-4.528,22-18.158c-0.827-8.238-5.079-12.835-13.005-14.895c-0.996-0.259-1.146-0.657-0.955-1.535
		c0.397-1.826,0.774-3.659,1.073-5.504c0.179-1.105,0.612-1.314,1.74-1.132c9.991,1.606,18.332,10.03,20.238,20.551
		c2.403,13.262-5.467,25.696-18.447,29.145c-12.217,3.246-25.003-2.554-30.157-13.678c-5.321-11.485-1.702-24.933,8.646-32.057
		c3.184-2.192,6.722-3.51,10.533-4.137c0.693-0.114,1.148-0.11,1.457,0.686C313.524,241.951,314.535,244.289,315.591,246.834z"/>
	<path style="fill:#EC1248;" d="M167.773,258.253c0,4.47,0,8.381,0,12.291c0,5.557-0.062,11.114,0.04,16.669
		c0.028,1.532-0.459,1.908-1.879,1.805c-1.616-0.116-3.255-0.125-4.87,0.002c-1.473,0.116-1.874-0.359-1.868-1.845
		c0.059-13.86,0.035-27.72,0.035-41.58c0-1.811-0.024-3.622,0.014-5.431c0.012-0.572-0.322-1.349,0.483-1.636
		c0.724-0.258,1.287,0.13,1.802,0.674c3.005,3.176,6.035,6.327,9.054,9.488c6.341,6.64,12.677,13.284,19.028,19.912
		c0.319,0.333,0.531,0.866,1.289,0.856c0-3.108,0-6.203,0-9.298c0-6.306,0.074-12.613-0.047-18.916
		c-0.034-1.793,0.548-2.243,2.199-2.096c1.488,0.133,3.006,0.131,4.494-0.001c1.504-0.133,1.868,0.411,1.861,1.868
		c-0.058,11.3-0.032,22.601-0.032,33.901c0,4.308,0.018,8.616-0.021,12.923c-0.006,0.612,0.412,1.471-0.424,1.816
		c-0.915,0.378-1.474-0.334-2.044-0.932c-6.852-7.188-13.711-14.368-20.571-21.548C173.602,264.336,170.882,261.5,167.773,258.253z"
		/>
	<path style="fill:#EC1248;" d="M283.404,287.085c-2.684-3.757-5.349-7.529-8.074-11.256c-0.567-0.777-0.54-1.096,0.315-1.655
		c6.76-4.418,9.624-11.834,7.908-20.246c-1.543-7.559-6.76-12.551-14.68-14.079c-5.889-1.137-11.842-0.462-17.761-0.698
		c-1.366-0.056-1.636,0.424-1.625,1.685c0.064,6.058,0.03,12.112,0.03,18.17c0,9.429,0.034,18.857-0.038,28.286
		c-0.011,1.434,0.383,1.817,1.764,1.723c1.805-0.124,3.637-0.161,5.431,0.008c1.663,0.15,1.952-0.499,1.888-1.982
		c-0.12-2.744,0.008-5.495-0.056-8.242c-0.022-1.04,0.267-1.438,1.355-1.389c1.558,0.068,3.127,0.045,4.684-0.056
		c0.931-0.06,1.468,0.263,1.986,1.017c2.184,3.194,4.429,6.347,6.666,9.5c0.342,0.484,0.559,1.122,1.359,1.118
		c3.284-0.019,6.572-0.008,10.134-0.008C284.151,288.184,283.79,287.629,283.404,287.085z M274.227,262.357
		c-1.055,4.185-4.388,6.595-9.703,7.071c-0.867,0.075-1.745,0.011-2.62,0.011c-3.374,0.071-3.374,0.071-3.374-3.352
		c0-5.615,0.068-11.226-0.045-16.838c-0.03-1.618,0.469-1.959,1.978-1.903c2.496,0.098,4.992,0.034,7.417,0.769
		c3.528,1.077,5.728,3.359,6.475,7.015C274.854,257.557,274.827,259.974,274.227,262.357z"/>
	<path style="fill:#EC1248;" d="M261.901,196.957c0,1.002,0,1.605,0,2.207c0,9.053-0.057,18.106,0.049,27.157
		c0.021,1.797-0.551,2.216-2.184,2.085c-1.614-0.13-3.249-0.08-4.871-0.011c-0.99,0.042-1.264-0.307-1.262-1.278
		c0.026-16.107,0.017-32.215,0.031-48.322c0-0.385-0.251-0.929,0.329-1.13c0.585-0.203,1.076,0.008,1.503,0.462
		c1.37,1.455,2.762,2.888,4.141,4.334c8.235,8.629,16.47,17.259,24.703,25.891c0.341,0.357,0.661,0.735,1.038,1.157
		c0.655-0.645,0.386-1.293,0.387-1.848c0.02-9.177,0.051-18.355-0.022-27.532c-0.012-1.507,0.429-1.954,1.884-1.836
		c1.49,0.121,3.009,0.143,4.494-0.004c1.647-0.163,1.934,0.513,1.918,2.007c-0.075,7.304-0.034,14.609-0.034,21.913
		c0,8.303,0.013,16.607-0.024,24.91c-0.003,0.651,0.487,1.603-0.527,1.93c-0.881,0.285-1.327-0.514-1.831-1.041
		c-9.318-9.755-18.63-19.515-27.946-29.272C263.203,198.24,262.708,197.765,261.901,196.957z"/>
	<path style="fill:#EC1248;" d="M208.138,264.054c0-7.743,0.028-15.486-0.028-23.228c-0.009-1.297,0.345-1.685,1.666-1.677
		c9.687,0.054,19.375,0.054,29.062-0.001c1.285-0.007,1.645,0.421,1.553,1.605c-0.168,2.161,0.252,4.346-0.234,6.498
		c-2.053,0.045-4.106,0.123-6.159,0.13c-5.125,0.019-10.25,0.042-15.375-0.021c-1.153-0.014-1.485,0.302-1.472,1.459
		c0.059,5.244,0.07,10.491-0.005,15.735c-0.019,1.31,0.475,1.531,1.629,1.522c5.75-0.047,11.501,0.032,17.249-0.059
		c1.461-0.023,1.835,0.442,1.738,1.804c-0.111,1.553-0.1,3.125-0.002,4.68c0.078,1.243-0.356,1.577-1.584,1.564
		c-5.749-0.063-11.5,0.018-17.249-0.061c-1.382-0.019-1.93,0.309-1.77,1.749c0.177,1.597-0.647,3.682,0.313,4.695
		c0.976,1.03,3.074,0.31,4.676,0.321c5.875,0.039,11.75,0.048,17.625-0.011c1.221-0.012,1.642,0.317,1.572,1.561
		c-0.102,1.805-0.079,3.622-0.005,5.43c0.04,0.998-0.301,1.258-1.275,1.255c-10.187-0.032-20.375-0.044-30.562,0.011
		c-1.275,0.007-1.384-0.513-1.38-1.544C208.153,279.664,208.138,271.859,208.138,264.054z"/>
	<path style="fill:#EC1248;" d="M167.677,201.623c3.337-4.225,6.336-8.016,9.328-11.813c2.745-3.482,5.488-6.965,8.218-10.457
		c0.431-0.552,0.808-1.037,1.64-1.025c2.923,0.043,5.848,0.017,9.149,0.017c-0.708,0.916-1.216,1.586-1.737,2.245
		c-5.036,6.367-10.053,12.749-15.133,19.081c-0.719,0.897-0.706,1.458-0.03,2.363c5.94,7.953,11.829,15.944,17.731,23.926
		c0.51,0.69,1.003,1.393,1.733,2.409c-3.589,0-6.859,0.01-10.129-0.008c-0.75-0.004-0.98-0.701-1.339-1.186
		c-4.496-6.07-9.02-12.121-13.444-18.243c-0.942-1.304-1.281-1.069-2.336-0.045c-2.991,2.905-4.193,6.235-3.704,10.386
		c0.29,2.464-0.023,4.993,0.083,7.487c0.058,1.358-0.434,1.713-1.707,1.643c-1.745-0.095-3.505-0.113-5.248,0.004
		c-1.448,0.097-1.914-0.33-1.903-1.844c0.07-9.305,0.035-18.611,0.035-27.917c0-6.245,0.026-12.491-0.023-18.736
		c-0.009-1.191,0.276-1.671,1.56-1.595c1.869,0.111,3.754,0.11,5.623,0.001c1.329-0.077,1.674,0.373,1.661,1.674
		c-0.064,6.495-0.029,12.99-0.029,19.485C167.677,200.011,167.677,200.547,167.677,201.623z"/>
	<path style="fill:#EC1248;" d="M427.576,287.164c-6.865-15.764-13.647-31.566-20.471-47.349c-0.274-0.634-0.289-1.55-1.325-1.576
		c-1.058-0.026-1.081,0.886-1.359,1.524c-4.264,9.898-8.513,19.803-12.769,29.704c-2.751,6.4-5.51,12.795-8.4,19.518
		c1.441,0,2.56,0.008,3.682-0.004c1.809-0.019,3.964,0.544,5.33-0.248c1.468-0.848,1.689-3.213,2.327-4.951
		c0.484-1.302,1.186-1.595,2.466-1.573c4.373,0.071,8.749,0.004,13.122,0.038c1.929,0.015,4.279-0.739,5.664,0.3
		c1.287,0.968,1.565,3.284,2.29,5.007c0.049,0.116,0.135,0.221,0.158,0.338c0.176,0.916,0.751,1.134,1.629,1.107
		c2.124-0.053,4.256-0.109,6.373,0.011C427.932,289.104,428.307,288.845,427.576,287.164z M411.451,274.042
		c-4.159-0.023-8.321-0.008-12.732-0.008c2.32-5.51,4.545-10.806,6.955-16.541c2.222,5.371,4.271,10.303,6.302,15.239
		C412.209,273.295,412.836,274.049,411.451,274.042z"/>
	<path style="fill:#EC1248;" d="M318.103,229.018c-7.599-0.073-13.633-3.014-17.684-9.638c-0.602-0.984-0.718-1.535,0.545-2.055
		c1.668-0.686,3.286-1.523,4.848-2.428c1.028-0.596,1.413-0.289,1.986,0.638c3.033,4.911,9.009,6.898,14.369,4.874
		c1.989-0.751,3.496-2.003,3.86-4.19c0.398-2.391-0.275-4.465-2.287-5.956c-2.991-2.216-6.558-3.297-9.85-4.918
		c-2.074-1.022-4.117-2.088-5.917-3.565c-4.676-3.837-6.383-9.862-4.391-15.524c1.793-5.096,6.738-8.426,12.66-8.595
		c6.113-0.174,11.108,1.878,14.637,7.059c0.658,0.966,0.678,1.52-0.431,2.14c-1.467,0.82-2.863,1.781-4.227,2.767
		c-0.854,0.617-1.345,0.725-1.997-0.331c-1.819-2.944-4.575-4.111-7.988-3.771c-2.139,0.213-3.831,1.084-4.58,3.257
		c-0.795,2.306-0.212,4.621,1.589,6.118c1.601,1.33,3.497,2.155,5.37,3.009c2.892,1.319,5.844,2.513,8.586,4.141
		c6.257,3.715,8.86,9.7,7.156,16.552c-1.48,5.951-5.767,8.767-11.402,9.979C321.372,228.922,319.754,229.155,318.103,229.018z"/>
	<path style="fill:#00AABE;" d="M123.483,178.052c-1.528,2.154-3.528,2.823-6.227,2.789c-12.063-0.158-24.131-0.049-36.194-0.086
		c-2.853-0.008-5.251,0.935-7.252,2.924c-2.395,2.38-4.782,4.767-7.143,7.176c-1.546,1.58-1.768,2.965-0.465,4.677
		c2.642,3.472,5.416,6.846,8.137,10.258c1.051,0.653,1.862,1.494,2.154,2.74c3.408,4.373,6.734,8.817,10.258,13.096
		c1.757,2.132,4.331,2.864,7.056,2.879c4.361,0.026,8.723,0.008,13.377,0.008c-1.734,2.023-3.123,3.588-6.058,3.461
		c-6.478-0.282-12.983-0.105-19.476-0.083c-4.756,0.019-8.595-1.723-11.41-5.634c-1.088-1.516-2.312-2.935-3.476-4.395
		c-1.111-0.601-1.723-1.584-2.117-2.732c-2.447-3.232-4.883-6.467-7.338-9.691c-3.138-4.121-2.928-7,0.751-10.686
		c4.365-4.373,8.697-8.783,13.054-13.163c2.121-2.132,4.579-3.645,7.634-4.005c7.229,0.023,14.458,0.06,21.687,0.071
		c7.045,0.015,14.086-0.004,21.132,0.019C122.214,177.673,122.958,177.38,123.483,178.052z"/>
	<path style="fill:#EC1248;" d="M380.432,280.783c-1.044,2.639-2.021,4.988-2.892,7.376c-0.287,0.788-0.78,0.829-1.438,0.828
		c-8.809-0.008-17.619-0.038-26.427,0.025c-1.608,0.012-1.255-0.972-1.256-1.836c-0.008-14.356-0.019-28.713,0.013-43.069
		c0.003-1.591-0.718-3.635,0.372-4.655c0.99-0.927,2.984-0.249,4.534-0.263c4.124-0.037,4.124-0.013,4.124,4.034
		c0,11.922,0.03,23.844-0.037,35.766c-0.009,1.517,0.45,1.84,1.88,1.826C366.236,280.743,373.168,280.783,380.432,280.783z"/>
	<path style="fill:#EC1248;" d="M76.494,208.529c-0.852-0.807-1.574-1.717-2.155-2.737c3.484-3.495,6.971-6.987,10.452-10.485
		c1.327-1.333,2.708-2.59,4.44-3.395c3.418-1.588,6.703-0.867,9.059,2.07c2.111,2.63,4.151,5.317,6.242,7.963
		c1.762,2.229,3.055,2.326,5.085,0.295c4.462-4.464,8.936-8.92,13.31-13.47c2.847-2.96,6.269-4.493,10.316-4.598
		c3.491-0.09,6.986-0.019,10.887-0.019c-1.716,1.743-2.751,3.747-5.513,3.362c-6.85-0.954-12.06,1.6-16.581,6.87
		c-5.199,6.059-11.069,11.542-16.646,17.277c-0.963,0.99-1.976,1.905-3.278,2.447c-2.497,1.04-4.646,0.534-6.351-1.564
		c-2.363-2.909-4.689-5.848-7.057-8.753c-1.882-2.31-3.947-2.667-6.337-0.766C80.276,204.69,78.442,206.682,76.494,208.529z"/>
	<path style="fill:#EC1248;" d="M397.584,203.426c0,7.678-0.048,15.357,0.039,23.034c0.018,1.6-0.471,2.044-2,1.936
		c-1.803-0.128-3.623-0.071-5.433-0.014c-1.001,0.032-1.435-0.212-1.433-1.337c0.033-15.793,0.033-31.587,0-47.38
		c-0.002-1.105,0.383-1.387,1.41-1.353c1.935,0.063,3.878,0.103,5.809-0.011c1.377-0.081,1.642,0.465,1.634,1.716
		C397.559,187.82,397.584,195.623,397.584,203.426z"/>
	<path style="fill:#00AABE;" d="M56.016,190.149c-1.865,4.816-3.78,9.601-5.514,14.469c-1.595,4.489-5.502,6.174-9.939,6.358
		c-5.048,0.214-10.115,0.049-15.554,0.049c1.685-1.749,2.695-3.652,5.48-3.412c3.1,0.263,6.246,0.105,9.368,0.045
		c4.594-0.086,6.929-1.772,8.227-6.152c1.013-3.416,2.177-6.756,3.802-9.928c0.338-0.664,0.582-1.377,0.822-2.083
		c1.152-3.352,0.026-5.949-3.25-7.285c-2.215-0.901-4.545-1.329-6.951-1.216c-3.397-0.492-6.816-0.135-10.22-0.218
		c-2.297-0.056-4.594-0.011-7.105-0.011c0.811-1.385,1.91-2.241,2.931-3.172h15.122c2.961,0.094,5.833,0.619,8.498,1.971
		C55.76,181.607,57.652,185.916,56.016,190.149z"/>
	<path style="fill:#EC1348;" d="M64.647,215.128c0.841,0.806,1.532,1.728,2.118,2.732c-3.112,2.298-6.541,3.344-10.47,3.295
		c-10.29-0.13-20.582-0.044-31.294-0.044c1.709-1.77,2.713-3.507,5.482-3.446c8.857,0.195,17.721,0.029,26.581,0.098
		C59.955,217.785,62.43,216.9,64.647,215.128z"/>
</g>
</svg>
